<svg class="diagram-root" style="background: #f5f6f6" xmlns="http://www.w3.org/2000/svg" xmlns:xlink="http://www.w3.org/1999/xlink"><style>.diagram-root { font-family: "Helvetica Neue", sans-serif; font-size: 12px; } .t { overflow: visible; } .t-bg { y: 40; fill: #fff;   } .th { fill: #005aa0;   } .tht { fill: #fff; font-size: 14px;  } .tf { fill: #323c46; overflow: visible; } .tf.pk { fill: #005aa0; font-weight: bold; } .tf.fk { font-weight: bold; } .ty { fill: #adb1b5; font-weight: normal; text-anchor: end; } .r { fill: transparent; stroke: #c3c3c3; stroke-width: 1; } .l { stroke: 1; } .i { fill: #c2c7ce; stroke: #c2c7ce; } .i.ix { fill: #afb3b6; stroke: #000; } .fa { fill: transparent; overflow: visible; } .fa .bg.hover { fill: #f7f7f7; } .c { cy: 12; r: 4; stroke: #d2d2dc; fill: #d2d2dc; } .hr { fill: transparent; stroke: #323c46; stroke-opacity: 0.035; stroke-width: 13; } .dc { stroke: #fa5a3c; fill: #fa5a3c; } .x { stroke: white; stroke-width: 1; } .hl .th { fill: #1b9bff; } .hl .tht {  } .fhl .bg { fill: #e7f4ff; } .fhls .bg {  } .r.hl { stroke: #1b9bff; } .dim { opacity: 0.25; }</style><g class="drawing-wrapper" transform="translate(-61, -17) scale(1,1)"><g class="rs"><path d="M 307.41 121 m -1, 0 a 1,1 0 1,0 2,0 a 1,1 0 1,0 -2,0 M 307.41 121 m -0.5, 0 a 0.5,0.5 0 1,0 1,0 a 0.5,0.5 0 1,0 -1,0  M307.41 121 L307.41 121 319.41 121 M 307.41 127 m -1, 0 a 1,1 0 1,0 2,0 a 1,1 0 1,0 -2,0 M 307.41 127 m -0.5, 0 a 0.5,0.5 0 1,0 1,0 a 0.5,0.5 0 1,0 -1,0  M307.41 127 L307.41 127 314.41 121 307.41 115 M 307.41 115 m -1, 0 a 1,1 0 1,0 2,0 a 1,1 0 1,0 -2,0 M 307.41 115 m -0.5, 0 a 0.5,0.5 0 1,0 1,0 a 0.5,0.5 0 1,0 -1,0  M319.41 121 Q 356.06 121, 392.71 233.5 T 466 346 M 478 346 m -1, 0 a 1,1 0 1,0 2,0 a 1,1 0 1,0 -2,0 M 478 346 m -0.5, 0 a 0.5,0.5 0 1,0 1,0 a 0.5,0.5 0 1,0 -1,0  M478 346 L478 346 466 346 M472 352 L472 352 472 340" id="h2717478708" class="r"></path><path d="M 287.4 502 m -1, 0 a 1,1 0 1,0 2,0 a 1,1 0 1,0 -2,0 M 287.4 502 m -0.5, 0 a 0.5,0.5 0 1,0 1,0 a 0.5,0.5 0 1,0 -1,0  M287.4 502 L287.4 502 299.4 502 M 287.4 508 m -1, 0 a 1,1 0 1,0 2,0 a 1,1 0 1,0 -2,0 M 287.4 508 m -0.5, 0 a 0.5,0.5 0 1,0 1,0 a 0.5,0.5 0 1,0 -1,0  M287.4 508 L287.4 508 294.4 502 287.4 496 M 287.4 496 m -1, 0 a 1,1 0 1,0 2,0 a 1,1 0 1,0 -2,0 M 287.4 496 m -0.5, 0 a 0.5,0.5 0 1,0 1,0 a 0.5,0.5 0 1,0 -1,0  M299.4 502 Q 341.05 502, 382.7 461.5 T 466 421 M 478 421 m -1, 0 a 1,1 0 1,0 2,0 a 1,1 0 1,0 -2,0 M 478 421 m -0.5, 0 a 0.5,0.5 0 1,0 1,0 a 0.5,0.5 0 1,0 -1,0  M478 421 L478 421 466 421 M472 427 L472 427 472 415" id="h2577063585" class="r"></path><path d="M 704.8 296 m -1, 0 a 1,1 0 1,0 2,0 a 1,1 0 1,0 -2,0 M 704.8 296 m -0.5, 0 a 0.5,0.5 0 1,0 1,0 a 0.5,0.5 0 1,0 -1,0  M704.8 296 L704.8 296 716.8 296 M 704.8 302 m -1, 0 a 1,1 0 1,0 2,0 a 1,1 0 1,0 -2,0 M 704.8 302 m -0.5, 0 a 0.5,0.5 0 1,0 1,0 a 0.5,0.5 0 1,0 -1,0  M704.8 302 L704.8 302 711.8 296 704.8 290 M 704.8 290 m -1, 0 a 1,1 0 1,0 2,0 a 1,1 0 1,0 -2,0 M 704.8 290 m -0.5, 0 a 0.5,0.5 0 1,0 1,0 a 0.5,0.5 0 1,0 -1,0  M716.8 296 Q 754.35 296, 791.9 200 T 867 104 M 879 104 m -1, 0 a 1,1 0 1,0 2,0 a 1,1 0 1,0 -2,0 M 879 104 m -0.5, 0 a 0.5,0.5 0 1,0 1,0 a 0.5,0.5 0 1,0 -1,0  M879 104 L879 104 867 104 M873 110 L873 110 873 98" id="h2636058149" class="r"></path><path d="M 704.8 321 m -1, 0 a 1,1 0 1,0 2,0 a 1,1 0 1,0 -2,0 M 704.8 321 m -0.5, 0 a 0.5,0.5 0 1,0 1,0 a 0.5,0.5 0 1,0 -1,0  M704.8 321 L704.8 321 716.8 321 M 704.8 327 m -1, 0 a 1,1 0 1,0 2,0 a 1,1 0 1,0 -2,0 M 704.8 327 m -0.5, 0 a 0.5,0.5 0 1,0 1,0 a 0.5,0.5 0 1,0 -1,0  M704.8 327 L704.8 327 711.8 321 704.8 315 M 704.8 315 m -1, 0 a 1,1 0 1,0 2,0 a 1,1 0 1,0 -2,0 M 704.8 315 m -0.5, 0 a 0.5,0.5 0 1,0 1,0 a 0.5,0.5 0 1,0 -1,0  M716.8 321 Q 759.85 321, 802.9 316 T 889 311 M 901 311 m -1, 0 a 1,1 0 1,0 2,0 a 1,1 0 1,0 -2,0 M 901 311 m -0.5, 0 a 0.5,0.5 0 1,0 1,0 a 0.5,0.5 0 1,0 -1,0  M901 311 L901 311 889 311 M895 317 L895 317 895 305" id="h1941715614" class="r"></path><path d="M 704.8 371 m -1, 0 a 1,1 0 1,0 2,0 a 1,1 0 1,0 -2,0 M 704.8 371 m -0.5, 0 a 0.5,0.5 0 1,0 1,0 a 0.5,0.5 0 1,0 -1,0  M704.8 371 L704.8 371 716.8 371 M 704.8 377 m -1, 0 a 1,1 0 1,0 2,0 a 1,1 0 1,0 -2,0 M 704.8 377 m -0.5, 0 a 0.5,0.5 0 1,0 1,0 a 0.5,0.5 0 1,0 -1,0  M704.8 377 L704.8 377 711.8 371 704.8 365 M 704.8 365 m -1, 0 a 1,1 0 1,0 2,0 a 1,1 0 1,0 -2,0 M 704.8 365 m -0.5, 0 a 0.5,0.5 0 1,0 1,0 a 0.5,0.5 0 1,0 -1,0  M716.8 371 Q 747.35 371, 777.9 443 T 839 515 M 851 515 m -1, 0 a 1,1 0 1,0 2,0 a 1,1 0 1,0 -2,0 M 851 515 m -0.5, 0 a 0.5,0.5 0 1,0 1,0 a 0.5,0.5 0 1,0 -1,0  M851 515 L851 515 839 515 M845 521 L845 521 845 509" id="h908660045" class="r"></path><path d="M 261.73 318 m -1, 0 a 1,1 0 1,0 2,0 a 1,1 0 1,0 -2,0 M 261.73 318 m -0.5, 0 a 0.5,0.5 0 1,0 1,0 a 0.5,0.5 0 1,0 -1,0  M261.73 318 L261.73 318 273.73 318 M 261.73 324 m -1, 0 a 1,1 0 1,0 2,0 a 1,1 0 1,0 -2,0 M 261.73 324 m -0.5, 0 a 0.5,0.5 0 1,0 1,0 a 0.5,0.5 0 1,0 -1,0  M261.73 324 L261.73 324 268.73 318 261.73 312 M 261.73 312 m -1, 0 a 1,1 0 1,0 2,0 a 1,1 0 1,0 -2,0 M 261.73 312 m -0.5, 0 a 0.5,0.5 0 1,0 1,0 a 0.5,0.5 0 1,0 -1,0  M273.73 318 Q 321.8 318, 369.87 357 T 466 396 M 478 396 m -1, 0 a 1,1 0 1,0 2,0 a 1,1 0 1,0 -2,0 M 478 396 m -0.5, 0 a 0.5,0.5 0 1,0 1,0 a 0.5,0.5 0 1,0 -1,0  M478 396 L478 396 466 396 M472 402 L472 402 472 390" id="h4041806622" class="r"></path></g><g class="hrs"></g><g class="ts"><svg width="226.8" height="250" x="478" y="214" id="h732460147" class="t"><rect height="40" width="226.8" class="th"></rect><text x="13" y="25" class="tht">fact_table_student_performance</text><rect height="210" width="226.8" class="t-bg"></rect><text x="13" y="61" class="tf">id<tspan x="213.8" class="ty">int(11)</tspan></text><text x="13" y="86" class="tf fk">student_id<tspan x="213.8" class="ty">int(11)?</tspan></text><text x="13" y="111" class="tf fk">spec_id<tspan x="213.8" class="ty">varchar(3)?</tspan></text><text x="13" y="136" class="tf fk">bac_id<tspan x="213.8" class="ty">varchar(512)?</tspan></text><text x="13" y="161" class="tf fk">level_id<tspan x="213.8" class="ty">varchar(10)?</tspan></text><text x="13" y="186" class="tf fk">state_id<tspan x="213.8" class="ty">varchar(5)?</tspan></text><text x="13" y="211" class="tf fk">date_id<tspan x="213.8" class="ty">varchar(512)?</tspan></text><text x="13" y="236" class="tf">GPA<tspan x="213.8" class="ty">double?</tspan></text></svg><svg width="178.73" height="100" x="901" y="254" id="h2426646203" class="t"><rect height="40" width="178.73" class="th"></rect><text x="13" y="25" class="tht">specialization_dim</text><rect height="60" width="178.73" class="t-bg"></rect><text x="13" y="61" class="tf fk">spec_id<tspan x="165.73" class="ty">varchar(3)</tspan></text><text x="13" y="86" class="tf">description<tspan x="165.73" class="ty">varchar(50)?</tspan></text></svg><svg width="183.4" height="150" x="879" y="47" id="h1396811844" class="t"><rect height="40" width="183.4" class="th"></rect><text x="13" y="25" class="tht">students_dim</text><rect height="110" width="183.4" class="t-bg"></rect><text x="13" y="61" class="tf fk">id<tspan x="170.4" class="ty">int(11)</tspan></text><text x="13" y="86" class="tf">first_name<tspan x="170.4" class="ty">varchar(512)?</tspan></text><text x="13" y="111" class="tf">last_name<tspan x="170.4" class="ty">varchar(512)?</tspan></text><text x="13" y="136" class="tf">gender<tspan x="170.4" class="ty">varchar(512)?</tspan></text></svg><svg width="178.73" height="100" x="83" y="261" id="h3397859464" class="t"><rect height="40" width="178.73" class="th"></rect><text x="13" y="25" class="tht">state_dim</text><rect height="60" width="178.73" class="t-bg"></rect><text x="13" y="61" class="tf fk">state_id<tspan x="165.73" class="ty">varchar(5)</tspan></text><text x="13" y="86" class="tf">description<tspan x="165.73" class="ty">varchar(50)?</tspan></text></svg><svg width="153.4" height="150" x="134" y="445" id="h308895871" class="t"><rect height="40" width="153.4" class="th"></rect><text x="13" y="25" class="tht">date_dim</text><rect height="110" width="153.4" class="t-bg"></rect><text x="13" y="61" class="tf fk">date_id<tspan x="140.4" class="ty">varchar(512)</tspan></text><text x="13" y="86" class="tf">Day<tspan x="140.4" class="ty">int(11)?</tspan></text><text x="13" y="111" class="tf">Month<tspan x="140.4" class="ty">int(11)?</tspan></text><text x="13" y="136" class="tf">Year<tspan x="140.4" class="ty">int(11)?</tspan></text></svg><svg width="185.41" height="100" x="122" y="64" id="h2544056371" class="t"><rect height="40" width="185.41" class="th"></rect><text x="13" y="25" class="tht">branch_dim</text><rect height="60" width="185.41" class="t-bg"></rect><text x="13" y="61" class="tf fk">bac_id<tspan x="172.41" class="ty">varchar(255)</tspan></text><text x="13" y="86" class="tf">description<tspan x="172.41" class="ty">varchar(255)?</tspan></text></svg><svg width="178.73" height="100" x="851" y="458" id="h1785294988" class="t"><rect height="40" width="178.73" class="th"></rect><text x="13" y="25" class="tht">level_dim</text><rect height="60" width="178.73" class="t-bg"></rect><text x="13" y="61" class="tf fk">level_id<tspan x="165.73" class="ty">varchar(10)</tspan></text><text x="13" y="86" class="tf">description<tspan x="165.73" class="ty">varchar(50)?</tspan></text></svg></g></g><text class="qdbd-link" x="10" y="20">www.quickdatabasediagrams.com</text></svg>